<svg xmlns="http://www.w3.org/2000/svg" viewBox="0 0 100 100" fill="none" shape-rendering="auto" width="512" height="512"><desc>"Shapes" by "Florian Körner", licensed under "CC0 1.0". / Remix of the original. - Created with dicebear.com</desc><metadata xmlns:dc="http://purl.org/dc/elements/1.1/" xmlns:cc="http://creativecommons.org/ns#" xmlns:rdf="http://www.w3.org/1999/02/22-rdf-syntax-ns#"><rdf:RDF><cc:Work><dc:title>Shapes</dc:title><dc:creator><cc:Agent rdf:about="https://dicebear.com"><dc:title>Florian Körner</dc:title></cc:Agent></dc:creator><dc:source>https://dicebear.com</dc:source><cc:license rdf:resource="https://creativecommons.org/publicdomain/zero/1.0/" /></cc:Work></rdf:RDF></metadata><mask id="viewboxMask"><rect width="100" height="100" rx="0" ry="0" x="0" y="0" fill="#fff" /></mask><g mask="url(#viewboxMask)"><rect fill="#004F6D" width="100" height="100" x="0" y="0" /><g transform="matrix(1.2 0 0 1.2 -10 -10)"><g transform="translate(52, 7) rotate(-42 50 50)"><path d="M0 0h100v100H0V0Z" fill="#E03A00"/></g></g><g transform="matrix(.8 0 0 .8 10 10)"><g transform="translate(-22, 40) rotate(-142 50 50)"><path fill="#DAD9D6" d="M45-150h10v400H45z"/></g></g><g transform="matrix(.4 0 0 .4 30 30)"><g transform="translate(-19, 24) rotate(98 50 50)"><path fill-rule="evenodd" clip-rule="evenodd" d="M50 90a40 40 0 1 0 0-80 40 40 0 0 0 0 80Zm0 10A50 50 0 1 0 50 0a50 50 0 0 0 0 100Z" fill="#00AC8C"/></g></g></g></svg>